<svg width="800" height="600" viewBox="0 0 800 600" fill="none" xmlns="http://www.w3.org/2000/svg" role="img" aria-label="Intelligence artificielle">
  <defs>
    <linearGradient id="ha" x1="0" y1="0" x2="800" y2="600" gradientUnits="userSpaceOnUse">
      <stop stop-color="#0f2a5e"/><stop offset="0.5" stop-color="#1b4f9c"/><stop offset="1" stop-color="#2196f3"/>
    </linearGradient>
    <radialGradient id="hag" cx="0.5" cy="0.45" r="0.5"><stop stop-color="#5bb8e8" stop-opacity="0.5"/><stop offset="1" stop-color="#5bb8e8" stop-opacity="0"/></radialGradient>
  </defs>
  <rect width="800" height="600" fill="url(#ha)"/>
  <circle cx="400" cy="270" r="220" fill="url(#hag)"/>
  <!-- Neural net -->
  <g stroke="#bfe0ff" stroke-width="2.5" opacity="0.55">
    <path d="M250 150 L400 270 M560 130 L400 270 M200 330 L400 270 M600 360 L400 270 M380 110 L400 270 M470 420 L400 270 M300 430 L400 270"/>
  </g>
  <g fill="#fff">
    <circle cx="250" cy="150" r="12"/><circle cx="560" cy="130" r="14"/><circle cx="200" cy="330" r="10"/><circle cx="600" cy="360" r="12"/><circle cx="380" cy="110" r="9"/><circle cx="470" cy="420" r="11"/><circle cx="300" cy="430" r="10"/>
  </g>
  <!-- Core spark -->
  <g transform="translate(400 270)">
    <circle r="44" fill="#fff"/>
    <path d="M0 -22 C8 -7 17 2 32 6 C17 9 8 18 0 32 C-8 18 -17 9 -32 6 C-17 2 -8 -7 0 -22 Z" fill="#1b4f9c"/>
  </g>
  <text x="110" y="560" font-family="Segoe UI, Arial, sans-serif" font-size="34" font-weight="800" fill="#fff">Intelligence Artificielle</text>
</svg>
