<svg width="800" height="600" viewBox="0 0 800 600" fill="none" xmlns="http://www.w3.org/2000/svg" role="img" aria-label="Developpement web et mobile">
  <defs>
    <linearGradient id="hw" x1="0" y1="0" x2="800" y2="600" gradientUnits="userSpaceOnUse">
      <stop stop-color="#163f7d"/><stop offset="0.55" stop-color="#1b6fd0"/><stop offset="1" stop-color="#2196f3"/>
    </linearGradient>
  </defs>
  <rect width="800" height="600" fill="url(#hw)"/>
  <g opacity="0.1" stroke="#fff" stroke-width="2"><path d="M60 80h120M180 80v40M180 120h70"/><path d="M740 540h-120M620 540v-50M620 490h-60"/></g>
  <!-- Browser -->
  <g stroke="#fff" stroke-width="3" fill="none">
    <rect x="120" y="130" width="430" height="300" rx="18" fill="#ffffff" fill-opacity="0.08"/>
    <path d="M120 180h430"/>
    <circle cx="150" cy="155" r="6" fill="#fff" stroke="none"/><circle cx="172" cy="155" r="6" fill="#fff" stroke="none" opacity="0.7"/><circle cx="194" cy="155" r="6" fill="#fff" stroke="none" opacity="0.5"/>
  </g>
  <g stroke="#bfe0ff" stroke-width="8" stroke-linecap="round">
    <path d="M160 230h150" opacity="0.9"/><path d="M160 270h220" opacity="0.6"/><path d="M160 310h120" opacity="0.6"/><path d="M160 350h190" opacity="0.45"/>
  </g>
  <!-- Code brackets -->
  <g stroke="#fff" stroke-width="6" stroke-linecap="round" stroke-linejoin="round" fill="none" opacity="0.85">
    <path d="M430 250l-30 28 30 28"/><path d="M500 250l30 28-30 28"/><path d="M478 244l-26 68"/>
  </g>
  <!-- Phone -->
  <g stroke="#fff" stroke-width="4" fill="none">
    <rect x="500" y="250" width="160" height="290" rx="28" fill="#0f2a5e" fill-opacity="0.55"/>
    <path d="M560 282h40" stroke-width="6" stroke-linecap="round"/>
  </g>
  <g stroke="#5bb8e8" stroke-width="7" stroke-linecap="round"><path d="M528 330h104" opacity="0.9"/><path d="M528 365h70" opacity="0.6"/><path d="M528 400h104" opacity="0.45"/></g>
  <circle cx="580" cy="500" r="14" fill="#fff"/>
  <text x="60" y="560" font-family="Segoe UI, Arial, sans-serif" font-size="34" font-weight="800" fill="#fff">Web · Mobile</text>
</svg>
