<svg width="800" height="600" viewBox="0 0 800 600" fill="none" xmlns="http://www.w3.org/2000/svg" role="img" aria-label="ERP et systemes de gestion">
  <defs>
    <linearGradient id="he" x1="0" y1="0" x2="800" y2="600" gradientUnits="userSpaceOnUse">
      <stop stop-color="#0f2a5e"/><stop offset="0.55" stop-color="#1b4f9c"/><stop offset="1" stop-color="#1b6fd0"/>
    </linearGradient>
  </defs>
  <rect width="800" height="600" fill="url(#he)"/>
  <g opacity="0.1" stroke="#fff" stroke-width="2"><path d="M740 90h-120M620 90v40M620 130h-70"/></g>
  <!-- Dashboard card -->
  <rect x="110" y="110" width="580" height="380" rx="22" fill="#ffffff" fill-opacity="0.08" stroke="#fff" stroke-width="3"/>
  <!-- KPI tiles -->
  <g fill="#ffffff" fill-opacity="0.12" stroke="#fff" stroke-width="2">
    <rect x="140" y="150" width="150" height="80" rx="12"/><rect x="325" y="150" width="150" height="80" rx="12"/><rect x="510" y="150" width="150" height="80" rx="12"/>
  </g>
  <g stroke="#5bb8e8" stroke-width="6" stroke-linecap="round"><path d="M160 200h80"/><path d="M345 200h60"/><path d="M530 200h90"/></g>
  <!-- Bar chart -->
  <g fill="#bfe0ff">
    <rect x="160" y="380" width="46" height="70" rx="6"/><rect x="230" y="340" width="46" height="110" rx="6"/><rect x="300" y="300" width="46" height="150" rx="6"/><rect x="370" y="350" width="46" height="100" rx="6"/><rect x="440" y="290" width="46" height="160" rx="6"/>
  </g>
  <!-- Trend line -->
  <path d="M520 420 L560 380 L600 395 L650 320" stroke="#fff" stroke-width="6" fill="none" stroke-linecap="round" stroke-linejoin="round"/>
  <circle cx="650" cy="320" r="9" fill="#fff"/>
  <text x="110" y="560" font-family="Segoe UI, Arial, sans-serif" font-size="34" font-weight="800" fill="#fff">ERP · Gestion</text>
</svg>
