<svg width="800" height="600" viewBox="0 0 800 600" fill="none" xmlns="http://www.w3.org/2000/svg" role="img" aria-label="Impact durable en Afrique">
  <defs>
    <linearGradient id="hi" x1="0" y1="0" x2="800" y2="600" gradientUnits="userSpaceOnUse">
      <stop stop-color="#1b4f9c"/><stop offset="0.5" stop-color="#1b6fd0"/><stop offset="1" stop-color="#5bb8e8"/>
    </linearGradient>
  </defs>
  <rect width="800" height="600" fill="url(#hi)"/>
  <g opacity="0.1" stroke="#fff" stroke-width="2"><path d="M60 90h120M180 90v40M180 130h70"/></g>
  <!-- Stylised Africa -->
  <path d="M340 110 C420 110 470 140 470 190 C470 230 500 250 500 300 C500 350 460 380 450 430 C442 470 410 500 370 500 C350 500 345 470 330 450 C310 425 280 420 270 380 C258 335 290 320 285 280 C280 235 300 200 310 170 C318 140 315 110 340 110 Z"
        fill="#ffffff" fill-opacity="0.14" stroke="#fff" stroke-width="3.5"/>
  <!-- Connection nodes -->
  <g fill="#fff"><circle cx="360" cy="200" r="9"/><circle cx="400" cy="300" r="11"/><circle cx="350" cy="380" r="8"/></g>
  <g stroke="#bfe0ff" stroke-width="2.5" opacity="0.7"><path d="M360 200 L400 300 L350 380"/></g>
  <!-- Growth arrow -->
  <g stroke="#fff" stroke-width="8" stroke-linecap="round" stroke-linejoin="round" fill="none">
    <path d="M540 420 L600 360 L640 390 L700 320"/><path d="M662 320h38v38"/>
  </g>
  <text x="110" y="560" font-family="Segoe UI, Arial, sans-serif" font-size="34" font-weight="800" fill="#fff">Impact durable</text>
</svg>
